# xmcd
#
# Track frame offsets: 
#        150
#        34445
#        70309
#        106312
#        141487
#        178198
#        211304
#        233336
#        269057
#        303020
#
# Disc length: 4405 seconds
#
# Revision: 0
# Processed by: cddbd v1.5.2PL0 Copyright (c) Steve Scherf et al.
# Submitted via: ExactAudioCopy v1.0b3
#
DISCID=9311330a
DTITLE=Various Artist - Woman Trance Voices Vol. 5 CD2
DYEAR=2012
DGENRE=Vocal Trance
TTITLE0=Armin van Buuren feat. Nadia Ali - Feels So Good (Jochan Mille
TTITLE0=r Remix)
TTITLE1=Betsie Larkin feat. Super8 and Tab - All We Have Is Now
TTITLE2=Signum feat. Julie Thompson - Never Be The Same (Original)
TTITLE3=Alex Kunnari feat. Emma Lock - You And Me (KhoMha and Julius Bea
TTITLE3=t Remix)
TTITLE4=Aurosinic and Ange - Without You (2011 DJ Mix)
TTITLE5=W&W feat. Ana Criado - Three O'Clock (Camera Remix)
TTITLE6=Winter Kills - Hot As Hades (John O'Callaghan Deep Dream Remix
TTITLE6=)
TTITLE7=Alkatraz and Taylor feat. Jennifer Hershman - Elation
TTITLE8=Andain - Promises (Myon and Shane 54 Summer of Love Mix)
TTITLE9=Cosmic Gate feat. Emma Hewitt - Calm Down
EXTD=
EXTT0=
EXTT1=
EXTT2=
EXTT3=
EXTT4=
EXTT5=
EXTT6=
EXTT7=
EXTT8=
EXTT9=
PLAYORDER=
